# xmcd CD database file generated by Grip 2.5
# 
# Track frame offsets:
#       150
#       14867
#       25752
#       44067
#       60195
#       73980
#       89115
#       101230
#       120722
#       135967
#       148217
#       165712
#       181400
#       195237
#       207380
#       219850
#       239630
#       260300
#       275647
#       295442
# 
# Disc length: 4142 seconds
# 
# Revision: 3
# Processed by: cddbd v1.4b41PL1 Copyright (c) Steve Scherf et al.
# Submitted via: Grip 2.5
# 
DISCID=41102c14
DTITLE=The flying burrito brothers - The live collection
DYEAR=1900
DGENRE=
TTITLE0=Streets of Baltimore
TTITLE1=Cash on the barrelhead
TTITLE2=Mystery train
TTITLE3=Christine's tune
TTITLE4=Take a city bride
TTITLE5=Come a little closer
TTITLE6=Blue eyes
TTITLE7=Citizen Kane
TTITLE8=Don't go down the drain
TTITLE9=Help is on its way
TTITLE10=Big Bayou
TTITLE11=White line fever
TTITLE12=Dim lights, thick smoke
TTITLE13=There'll be no teardrops tonight
TTITLE14=Rollin' in my sweet baby's arms
TTITLE15=Hot burrito
TTITLE16=Colorado
TTITLE17=Rocky top
TTITLE18=Six days on the road
TTITLE19=Truck drivin' man
EXTD=
EXTT0=
EXTT1=
EXTT2=
EXTT3=
EXTT4=
EXTT5=
EXTT6=
EXTT7=
EXTT8=
EXTT9=
EXTT10=
EXTT11=
EXTT12=
EXTT13=
EXTT14=
EXTT15=
EXTT16=
EXTT17=
EXTT18=
EXTT19=
PLAYORDER=
